<svg width="12" height="12" viewBox="0 0 12 12" fill="none" xmlns="http://www.w3.org/2000/svg">
<path fill-rule="evenodd" clip-rule="evenodd" d="M11.3333 8.33334C10.5 8.33334 9.69984 8.19987 8.96678 7.96681C8.73338 7.90006 8.46678 7.93328 8.30016 8.13347L6.83331 9.59997C4.93325 8.63347 3.40006 7.09997 2.43325 5.19987L3.90009 3.73341C4.06672 3.56675 4.13328 3.30016 4.06672 3.06675C3.79994 2.30016 3.66666 1.5 3.66666 0.666656C3.66666 0.300125 3.36669 0 3 0H0.666656C0.299969 0 0 0.300125 0 0.666656C0 6.93325 5.06675 12 11.3333 12C11.6999 12 12 11.6999 12 11.3333V9C12 8.63347 11.6999 8.33334 11.3333 8.33334Z" fill="#4CAF50"/>
</svg>
