<svg width="81" height="75" viewBox="0 0 81 75" fill="none" xmlns="http://www.w3.org/2000/svg">
<path fill-rule="evenodd" clip-rule="evenodd" d="M44.2 28V37.3V40.4H47.4H57V46.6H47.4H44.2V49.7V59H37.8V49.7V46.6H34.6H25V40.4H34.6H37.8V37.3V28H44.2ZM47.3333 25H34.6667V37.3333H22V49.6667H34.6667V62H47.3333V49.6667H60V37.3333H47.3333V25Z" fill="#03ACF2"/>
<path fill-rule="evenodd" clip-rule="evenodd" d="M56.0769 12.5V6.25C55.9796 2.69531 53.4288 0 49.8072 0H30.5113C26.8897 0 24.9231 2.67578 24.9231 6.25V12.5H0V75H81V12.5H56.0769ZM28 6.39375C28 4.48125 28.5664 3 30.6758 3H49.6406C51.6719 3 53 4.44375 53 6.39375V12H28V6.39375ZM78 72H3V16H78V72Z" fill="#03ACF2"/>
</svg>
